<svg width="78.822" height="70.583" viewBox="0 0 20.855 18.675" xmlns="http://www.w3.org/2000/svg"><path d="M2.286 0h16.272a2.291 2.291 0 011.985 3.437l-8.136 14.092a2.291 2.291 0 01-3.97 0L.303 3.437A2.291 2.291 0 012.286 0z" fill="#fff"/><path d="M9.988 18.62a2.404 2.404 0 01-.854-.357 2.89 2.89 0 01-.565-.552C8.475 17.576.37 3.544.25 3.31a2.274 2.274 0 01.128-2.26A2.316 2.316 0 011.907.042c.156-.03.678-.032 8.522-.032 7.999 0 8.362.001 8.519.033a2.31 2.31 0 011.218.64c.693.692.868 1.744.436 2.61-.09.182-8.175 14.188-8.297 14.374a2.827 2.827 0 01-.627.617 2.231 2.231 0 01-.836.34 2.628 2.628 0 01-.854-.002z" fill="#fff"/></svg>