<svg width="78.822" height="70.583" viewBox="0 0 20.855 18.675" xmlns="http://www.w3.org/2000/svg"><path d="M18.566 18.675H2.294a2.291 2.291 0 01-1.985-3.437L8.445 1.146a2.291 2.291 0 013.97 0l8.135 14.092a2.291 2.291 0 01-1.984 3.437z" fill="#fff"/><path d="M2.11 18.655a2.297 2.297 0 01-2.057-1.844 2.661 2.661 0 010-.855c.039-.187.12-.427.193-.572C.38 15.115 8.518 1.046 8.606.929c.344-.46.87-.785 1.43-.883.206-.036.579-.036.785 0 .317.056.662.2.935.392.184.13.423.374.549.562.116.174 8.2 14.171 8.306 14.384.082.164.152.368.195.569.044.205.044.656 0 .862-.198.93-.865 1.596-1.813 1.81l-.173.04-8.264.002c-4.546.002-8.347-.004-8.447-.012z" fill="#fff"/></svg>